<svg xmlns="http://www.w3.org/2000/svg" xmlns:xlink="http://www.w3.org/1999/xlink" version="1.1" x="0px" y="0px" viewBox="0 0 100 125" enable-background="new 0 0 100 100" xml:space="preserve"><path d="M84.856,70.337c2.255-0.898,6.983-3.279,8.501-7.913c1.263-3.861-0.03-8.336-3.844-13.3  c-4.301-5.598-5.979-10.302-4.853-13.602c1.092-3.2,4.493-4.13,4.526-4.139l1.003-0.264l-0.723-0.74  c-9.521-9.74-19.973-6.447-20.077-6.413l-0.837,0.276l0.271,0.329l-13.57,19.569l-2.27-1.593l-1.001,1.441l-2.716-2.13l1.351-1.943  l-2.434-1.708l-3.911,5.631l2.434,1.708l1.872-2.696l2.715,2.129l-4.8,6.911l2.276,1.599l-0.753,1.086  c-1.447-0.103-3.808-0.012-5.632,1.276c-1.132,0.8-1.49,1.759-1.837,2.687c-0.158,0.425-0.322,0.863-0.565,1.303  c-0.613,1.109-1.633,2.138-3.209,3.236c-4.9,3.415-10.101,4.188-15.607,5.006c-0.037,0.006-0.073,0.012-0.11,0.017  c-2.16-5.724,0.533-9.671,0.704-9.91c1.196-1.159,1.945-2.782,1.945-4.58c0-3.51-2.842-6.366-6.335-6.366  c-3.495,0-6.337,2.855-6.337,6.366c0,1.675,0.652,3.195,1.708,4.334l-0.001,0.001c0.152,0.206,3.601,5.031,0.145,11.682  c-3.172,0.81-7.839,2.475-7.878,6.363L5,76.598h90L84.856,70.337z M46.407,43.862l-0.459-0.322l2.536-3.65l0.459,0.322  L46.407,43.862z M53.282,44.229l1.154,0.809l-5.115,7.364l-1.153-0.809L53.282,44.229z M87.934,30.559  c-1.275,0.554-3.482,1.866-4.408,4.558c-1.291,3.754,0.402,8.714,5.033,14.741c3.554,4.627,4.783,8.727,3.653,12.185  c-1.635,5.012-7.783,7.202-8.766,7.522c-2.523-0.657-5.119-0.978-7.631-1.284c-1.879-0.228-3.794-0.464-5.687-0.843  c3.532-3.872,17.305-21.344,0.518-42.538C73.171,24.406,80.721,23.685,87.934,30.559z M49.516,54.53l20.099-28.983  c0.211,0.265,0.417,0.529,0.619,0.792L50.513,54.564C50.173,54.536,49.838,54.524,49.516,54.53z M70.992,27.358  c15.287,21.15-0.027,37.6-2.229,39.779c-0.805-0.196-1.604-0.425-2.391-0.7c-2.997-1.047-7.102-3.104-9.633-6.961  c-0.188-0.287-0.367-0.582-0.545-0.877c-0.506-0.834-1.027-1.694-1.768-2.402c-0.784-0.748-1.686-1.177-2.599-1.414L70.992,27.358z   M17.371,48.448c2.828,0,5.129,2.316,5.129,5.161c0,2.846-2.301,5.16-5.129,5.16c-2.83,0-5.132-2.314-5.132-5.16  C12.239,50.764,14.541,48.448,17.371,48.448z M14.855,59.449c0.772,0.337,1.621,0.526,2.515,0.526c0.847,0,1.655-0.171,2.394-0.477  c-0.708,1.89-1.283,4.982,0.078,8.782c-1.75,0.267-3.539,0.559-5.34,0.961c-0.029,0.006-0.064,0.015-0.094,0.021  C16.281,65.054,15.658,61.57,14.855,59.449z M14.766,70.42c2.214-0.496,4.433-0.826,6.578-1.145  c5.651-0.839,10.987-1.633,16.121-5.209c1.733-1.209,2.869-2.365,3.575-3.644c0.285-0.518,0.474-1.02,0.639-1.463  c0.322-0.86,0.576-1.539,1.403-2.124c1.665-1.176,3.958-1.15,5.175-1.032l0.353,0.034l0.041-0.058  c2.265-0.181,3.84,0.233,4.945,1.289c0.625,0.598,1.083,1.354,1.568,2.154c0.187,0.308,0.372,0.615,0.568,0.915  c2.718,4.139,7.07,6.329,10.244,7.437c3.183,1.112,6.493,1.515,9.694,1.904c2.502,0.304,5.088,0.618,7.561,1.271l4.797,2.96H7.164  C8.957,71.722,12.838,70.851,14.766,70.42z M6.417,74.918h83.565l0.768,0.474H6.274C6.307,75.228,6.361,75.072,6.417,74.918z"/><path d="M48.314,62.812c1.38,0,2.503-1.128,2.503-2.513c0-1.386-1.123-2.513-2.503-2.513s-2.503,1.127-2.503,2.513  C45.812,61.684,46.935,62.812,48.314,62.812z M48.314,58.992c0.715,0,1.297,0.586,1.297,1.307s-0.582,1.306-1.297,1.306  s-1.297-0.585-1.297-1.306S47.6,58.992,48.314,58.992z"/><text x="0" y="115" fill="#000000" font-size="5px" font-weight="bold" font-family="'Helvetica Neue', Helvetica, Arial-Unicode, Arial, Sans-serif">Created by Petr Andel</text><text x="0" y="120" fill="#000000" font-size="5px" font-weight="bold" font-family="'Helvetica Neue', Helvetica, Arial-Unicode, Arial, Sans-serif">from the Noun Project</text></svg>