<svg height="512" viewBox="0 0 64 64" width="512" xmlns="http://www.w3.org/2000/svg"><g id="Outline"><path d="m56.3999 9.65039a17.78988 17.78988 0 0 0 -.42383-3.86816.99961.99961 0 0 0 -1.45507-.66016l-11 6a1.01294 1.01294 0 0 0 -.228.1709l-3.46 3.46a.99928.99928 0 0 0 -.293.707v1.41992h-1.83a.99974.99974 0 0 0 -1 1v1.83011h-1.83012a.99974.99974 0 0 0 -1 1v1.83h-1.41988a1.01329 1.01329 0 0 0 -.7077.29364l-3.5423 3.54236-.16016-.16016a3.472 3.472 0 0 0 -5.749 3.55273l.02832.08594-14.62701 14.62791a5.68668 5.68668 0 0 0 -.00733 8.02149l5.57818 5.59863a3.40339 3.40339 0 0 0 2.42285 1.00684h.00293a3.40059 3.40059 0 0 0 2.42041-1.00293 3.44151 3.44151 0 0 0 .82715-1.3379l.45117-1.35449a3.96367 3.96367 0 0 1 2.49507-2.49506 5.02521 5.02521 0 0 0 3.16211-3.16309l.14892-.44629a3.01854 3.01854 0 0 1 1.89746-1.89844l.44776-.14843a5.0245 5.0245 0 0 0 3.1626-3.16211 2.98406 2.98406 0 0 1 2.42187-2.02154l1.68555-.24121a3.48544 3.48544 0 0 0 1.96435-.98144l.499-.498a3.44315 3.44315 0 0 0 .30822-4.53479l13.59658-13.5971a17.90917 17.90917 0 0 0 5.2129-12.57617zm-20.53174 29.293-.49951.499a1.46748 1.46748 0 0 1 -.832.415l-1.68652.24121a4.975 4.975 0 0 0 -4.03613 3.36917 3.01365 3.01365 0 0 1 -1.89746 1.89746l-.44824.14942a5.026 5.026 0 0 0 -3.16211 3.16211l-.14892.44726a3.01814 3.01814 0 0 1 -1.89795 1.89844 5.97147 5.97147 0 0 0 -3.75932 3.75879l-.45117 1.35449a1.42456 1.42456 0 0 1 -1.3501.97364h-.00146a1.40948 1.40948 0 0 1 -1.00733-.419l-5.57812-5.59858a3.68311 3.68311 0 0 1 .00439-5.19532l15.06397-15.06448a.99976.99976 0 0 0 .2417-1.02246l-.22364-.67285a1.47273 1.47273 0 0 1 2.4375-1.50684l9.23194 9.23242a1.47175 1.47175 0 0 1 .00048 2.08106zm.34156-4.5672-6.58572-6.58609 3.25-3.2501h2.00586a.99974.99974 0 0 0 1-1v-1.83h1.83014a.99973.99973 0 0 0 1-1v-1.83012h1.83a.99973.99973 0 0 0 1-1v-2.00588l3.06543-3.06543 9.65434-5.26557a15.79657 15.79657 0 0 1 -4.48677 13.2695z"/><path d="m14.5 48a1.5 1.5 0 1 0 1.5 1.5 1.50164 1.50164 0 0 0 -1.5-1.5z"/><path d="m25.293 32.293-4 4a.99989.99989 0 1 0 1.414 1.414l4-4a.99989.99989 0 0 0 -1.414-1.414z"/><path d="m18.793 38.793-.5.5a.99989.99989 0 1 0 1.414 1.414l.5-.5a.99989.99989 0 0 0 -1.414-1.414z"/></g></svg>