<svg xmlns="http://www.w3.org/2000/svg" viewBox="0 0 64 64"><g id="Layer_36" data-name="Layer 36"><path d="M60.05,18.28,49.12,7.35a7.33,7.33,0,0,0-10.3,0L4.66,41.51a5.41,5.41,0,0,0,0,7.63l8.72,8.71a3,3,0,0,0,4.95-3c.48,0,1.18.2,1.54-.22.55-.45.12-1.85.11-2.67.82,0,2.22.43,2.66-.12s.12-1.84.11-2.66c.82,0,2.22.42,2.66-.13s.13-1.84.11-2.66c.83,0,2.23.42,2.67-.13s.12-1.84.11-2.66c.81,0,2.22.42,2.66-.13s.13-1.84.12-2.66c.83,0,2.21.42,2.66-.13s.12-1.84.11-2.67c.83,0,2.22.43,2.67-.12s.12-1.84.11-2.66c.84,0,2.22.42,2.66-.13s.12-1.84.11-2.67c.82,0,2.23.43,2.67-.13s.12-1.84.11-2.66l1.88.16a1,1,0,0,0,1.08-1.09l-.07-.74a3,3,0,0,0,3.19-4.81l-8-8a.63.63,0,0,1,0-.88L43,11.55a1.37,1.37,0,0,1,1.9,0L55.78,22.4A3,3,0,1,0,60.05,18.28ZM41.16,27.5a1,1,0,0,0-1.08,1.09l.17,1.87c-.79,0-2.21-.42-2.66.13s-.13,1.84-.12,2.66c-.79,0-2.21-.42-2.66.13s-.12,1.84-.11,2.66c-.8,0-2.22-.42-2.66.13s-.13,1.84-.12,2.66c-.79,0-2.21-.42-2.66.13s-.12,1.84-.11,2.66c-.82,0-2.22-.42-2.67.13s-.12,1.84-.11,2.66l-1.86-.16a1,1,0,0,0-1.09,1.09l.18,1.86c-.81,0-2.22-.42-2.67.13s-.12,1.84-.11,2.66c-.8,0-2.21-.43-2.66.13S18,52,18.05,52.78l-1.5-.14L9.82,45.9a.82.82,0,0,1,0-1.15l25.41-25.4a.63.63,0,0,1,.88,0l6.8,6.79L43,27.66ZM58.5,21.17A1.05,1.05,0,0,1,57.19,21L46.34,10.13a3.43,3.43,0,0,0-4.73,0l-2.73,2.73a2.62,2.62,0,0,0,0,3.7l8,8A1,1,0,0,1,46.72,26a1.07,1.07,0,0,1-1.32-.19l-7.89-7.89a2.68,2.68,0,0,0-3.7,0L8.4,43.34a2.81,2.81,0,0,0,0,4l7.83,7.83a1,1,0,1,1-1.44,1.29L6.08,47.73a3.39,3.39,0,0,1,0-4.8L40.24,8.77a5.28,5.28,0,0,1,7.47,0L58.63,19.69A1,1,0,0,1,58.5,21.17Z"/></g></svg>