<?xml version="1.0" encoding="UTF-8"?>
<!DOCTYPE svg PUBLIC "-//W3C//DTD SVG 1.1//EN" "http://www.w3.org/Graphics/SVG/1.1/DTD/svg11.dtd">
<!-- Creator: CorelDRAW -->
<svg xmlns="http://www.w3.org/2000/svg" xml:space="preserve" width="1.70666in" height="1.70666in" version="1.1" style="shape-rendering:geometricPrecision; text-rendering:geometricPrecision; image-rendering:optimizeQuality; fill-rule:evenodd; clip-rule:evenodd"
viewBox="0 0 1707 1707"
 xmlns:xlink="http://www.w3.org/1999/xlink">
 <defs>
  <style type="text/css">
   <![CDATA[
    .fil0 {fill:black}
   ]]>
  </style>
 </defs>
 <g id="Layer_x0020_1">
  <metadata id="CorelCorpID_0Corel-Layer"/>
  <path class="fil0" d="M526 1226l-160 -160c-45,36 -111,91 -155,123 -31,22 -36,25 -4,100l103 242 40 28c1,-22 -3,-46 19,-51 10,-2 20,3 25,12l52 98 21 13 -62 -160c-65,-167 18,-163 83,-214l38 -31zm-125 -189l161 161 644 -508c22,-18 43,-35 63,-51l-168 -168c-26,24 -53,47 -80,69l-620 497zm111 670c-12,0 -80,-44 -95,-53 -9,-6 -19,-29 -26,-42 -6,12 -21,16 -33,8 -14,-10 -83,-53 -88,-65l-105 -248c-50,-119 -18,-124 39,-170l789 -633c150,-120 279,-254 283,-482 1,-18 21,-28 36,-18l106 71c6,5 10,12 10,20l-2 55c6,-10 22,-47 46,-26l86 73c7,5 10,14 8,22 -53,226 -121,327 -248,437l-84 70 -718 566c-70,56 -119,33 -68,163l86 221c5,15 -6,31 -22,31zm791 -1098c109,-98 168,-190 215,-387l-54 -46 -43 74c-12,21 -43,12 -43,-11l4 -133 -62 -42c-14,162 -90,279 -186,376l169 169z"/>
 </g>
</svg>
