<?xml version="1.0" encoding="UTF-8" standalone="no"?> <svg xmlns="http://www.w3.org/2000/svg" viewBox="0 0 512 512"><title>Rulers</title><g id="Rulers"><g id="Rulers-2" data-name="Rulers"><path d="M288.88,365.54H142.24V66.1H61.88V445.9h227Zm-12,12v10.89H142.24V377.54ZM142.24,400.43H276.88V411H142.24ZM106.8,78.1h23.44v57H118.45v12h11.79v11H106.8v12h.36v.36h23.08v12.28H118.45v12h11.79V207H106.8v12h23.44v9.52H118.45v12h11.79V250H106.8v12h23.44v11H118.45v12h11.79v11H106.8v12h23.44v11H118.45v12h11.79v11H106.8v12h23.44v15.12L73.88,425.9V78.1Zm-24,355.8,47.4-47.79V433.9Zm59.4,0V423H276.88V433.9Z"/><path d="M102.06,121.85A17.06,17.06,0,1,0,85,104.79,17.08,17.08,0,0,0,102.06,121.85Zm0-22.11A5.06,5.06,0,1,1,97,104.79,5.06,5.06,0,0,1,102.06,99.74Z"/><path d="M401.81,113.62,212.53,302.9l48.31,48.32L450.12,161.93ZM229.5,302.9l12.58-12.58,8.52,8.53,8.49-8.49-8.53-8.52,7.2-7.2,16.91,16.91,8.49-8.48-16.92-16.92,7.4-7.39,8.43,8.44,8.49-8.49-8.44-8.43,7.56-7.56,16.57,16.57,8.48-8.48-16.57-16.57,6.73-6.74,8.34,8.34,8.49-8.48L313.38,219l6.73-6.73,16.57,16.57,8.49-8.49L328.6,203.8l7.77-7.77,8.33,8.34,8.49-8.48-8.34-8.34,7.77-7.77,16.57,16.57,8.48-8.48L361.1,171.29l7.78-7.77,8.33,8.34,8.49-8.48L377.36,155l7.77-7.77,16.57,16.57,8.48-8.48-16.57-16.57,8.2-8.2,31.34,31.34L260.84,334.25Z"/><path d="M214,114.68v88.69l88.69-88.69Zm12,12h47.72L226,174.4Z"/><path d="M202,77.2h-24.2v213l213-213ZM189.81,240h8.89V228h-8.89v-9.54h16v-12h-16v-9.54h8.89v-12h-8.89v-9.54h16v-12h-16v-9.53h8.89v-12h-8.89v-9.54h16v-12h-16v-9.54h8.89v-12h-8.89V89.2h172l-172,172Z"/></g></g></svg>