<?xml version="1.0" encoding="UTF-8"?>
<!DOCTYPE svg PUBLIC "-//W3C//DTD SVG 1.1//EN" "http://www.w3.org/Graphics/SVG/1.1/DTD/svg11.dtd">
<!-- Creator: CorelDRAW -->
<svg xmlns="http://www.w3.org/2000/svg" xml:space="preserve" width="1.70666in" height="1.70666in" version="1.1" style="shape-rendering:geometricPrecision; text-rendering:geometricPrecision; image-rendering:optimizeQuality; fill-rule:evenodd; clip-rule:evenodd"
viewBox="0 0 1706.66 1706.66"
 xmlns:xlink="http://www.w3.org/1999/xlink"
 xmlns:xodm="http://www.corel.com/coreldraw/odm/2003">
 <defs>
  <style type="text/css">
   <![CDATA[
    .fil0 {fill:black}
   ]]>
  </style>
 </defs>
 <g id="Layer_x0020_1">
  <metadata id="CorelCorpID_0Corel-Layer"/>
  <path class="fil0" d="M969.96 837.31c-5.31,0 -10.39,-2.11 -14.15,-5.86l-304.8 -304.81c-7.82,-7.8 -7.82,-20.47 0,-28.28l257.52 -257.52c7.82,-7.82 20.49,-7.82 28.3,0l304.81 304.81c7.81,7.81 7.82,20.46 0,28.28l-257.54 257.53c-3.75,3.75 -8.83,5.86 -14.14,5.86zm-276.52 -324.81l276.52 276.54 229.26 -229.25 -276.54 -276.52 -229.25 229.24z"/>
  <path class="fil0" d="M1120.44 1296.47c-8.43,0 -16.24,-5.39 -18.98,-13.78l-150.5 -459.14c-2.35,-7.17 -0.47,-15.04 4.86,-20.37l257.54 -257.54c5.33,-5.35 13.22,-7.22 20.37,-4.86l459.15 150.5c9.57,3.14 15.31,12.89 13.42,22.78 -57.96,301.09 -247.87,491.37 -580.59,581.71 -1.76,0.47 -3.53,0.71 -5.26,0.71zm-127.67 -473.7l140.72 429.28c298.87,-86.04 472.48,-259.09 529.99,-528.31l-430.55 -141.12 -240.16 240.15z"/>
  <path class="fil0" d="M1078.02 1167c-22.43,0 -27.78,-31.8 -6.33,-38.98 252.7,-84.45 406.56,-236.3 470.37,-464.2 7.08,-25.34 45.62,-14.6 38.51,10.78 -67.64,241.64 -229.96,402.37 -496.22,491.35 -2.09,0.7 -4.22,1.04 -6.33,1.04z"/>
  <path class="fil0" d="M186.66 1471.69c-5.31,0 -10.39,-2.11 -14.13,-5.87l-166.65 -166.65c-7.81,-7.81 -7.81,-20.47 0,-28.29 15.38,-15.4 100.13,-105.37 112.59,-108.03 135.16,-28.78 453.21,-444.9 601.93,-594.97 7.8,-7.87 20.52,-7.92 28.35,-0.07l160.89 160.87c7.81,7.81 7.81,20.46 0,28.27l-708.85 708.85c-3.73,3.76 -8.81,5.87 -14.12,5.87zm-138.36 -186.65l138.36 138.37 680.56 -680.57 -132.41 -132.4c-41.01,42.83 -92.61,102.17 -146.9,164.59 -161.53,185.75 -344.22,395.84 -455.11,425.52l-84.5 84.48zm1104.66 -779.81c-5.31,0 -10.39,-2.1 -14.15,-5.86l-160.75 -160.74c-31.14,-31.14 66.5,-80.44 116.48,-80.44 107.91,0 177.82,130.37 72.9,240.81l-14.48 6.24zm-131.33 -179.61l130.19 130.19c78.98,-103.48 -27.29,-208.58 -130.19,-130.19z"/>
  <path class="fil0" d="M289.26 1369.07c-5.12,0 -10.24,-1.96 -14.13,-5.86l-166.64 -166.63c-11.18,-11.18 -5.5,-30.43 9.97,-33.71 108.75,-23.03 349.07,-311.17 490.6,-472.96 7.61,-8.7 21.01,-9.14 29.18,-0.97l155.58 155.58c7.81,7.81 7.82,20.48 0,28.28l-490.43 490.42c-3.9,3.91 -9.01,5.85 -14.14,5.85zm-130.02 -178.31l130.02 130.02 462.13 -462.13 -126.32 -126.32c-149.65,171.4 -342.59,401.64 -465.83,458.42z"/>
  <path class="fil0" d="M946.32 556.14c-5.11,0 -10.24,-1.96 -14.15,-5.86l-152.4 -152.39c-18.63,-18.61 9.67,-46.91 28.28,-28.28l152.41 152.41c12.65,12.64 3.5,34.12 -14.14,34.12z"/>
 </g>
</svg>
