<?xml version="1.0" encoding="UTF-8"?>
<!DOCTYPE svg PUBLIC "-//W3C//DTD SVG 1.1//EN" "http://www.w3.org/Graphics/SVG/1.1/DTD/svg11.dtd">
<!-- Creator: CorelDRAW -->
<svg xmlns="http://www.w3.org/2000/svg" xml:space="preserve" width="512px" height="512px" version="1.1" style="shape-rendering:geometricPrecision; text-rendering:geometricPrecision; image-rendering:optimizeQuality; fill-rule:evenodd; clip-rule:evenodd"
viewBox="0 0 512 512"
 xmlns:xlink="http://www.w3.org/1999/xlink">
 <defs>
  <style type="text/css">
   <![CDATA[
    .fil0 {fill:black}
   ]]>
  </style>
 </defs>
 <g id="Layer_x0020_1">
  <metadata id="CorelCorpID_0Corel-Layer"/>
  <g id="_396741944">
   <g>
    <g>
     <path class="fil0" d="M301 387c-2,0 -4,-1 -5,-2l-169 -169c-1,-1 -2,-3 -2,-5 0,-2 1,-4 2,-5l205 -204c3,-3 7,-3 10,0l168 168c3,3 3,7 0,10l-204 205c-1,1 -3,2 -5,2 0,0 0,0 0,0zm-159 -176l159 159 194 -195 -158 -158 -195 194z"/>
    </g>
    <g>
     <path class="fil0" d="M296 100c-2,0 -4,-1 -5,-2 -3,-3 -3,-7 0,-10l63 -63c3,-3 7,-3 10,0 3,3 3,7 0,10l-63 63c-1,1 -3,2 -5,2z"/>
    </g>
    <g>
     <path class="fil0" d="M337 109c-2,0 -4,-1 -5,-2 -3,-3 -3,-7 0,-10l47 -48c3,-3 7,-3 10,0 3,3 3,7 0,10l-47 48c-1,1 -3,2 -5,2z"/>
    </g>
    <g>
     <path class="fil0" d="M342 152c-2,0 -4,-1 -5,-2 -3,-3 -3,-7 0,-10l67 -66c3,-3 7,-3 10,0 3,3 3,7 0,10l-67 66c-2,1 -3,2 -5,2z"/>
    </g>
    <g>
     <path class="fil0" d="M363 181c-2,0 -4,-1 -5,-2 -3,-3 -3,-7 0,-10l70 -71c3,-3 7,-3 10,0 3,3 3,7 0,10l-70 71c-1,1 -3,2 -5,2z"/>
    </g>
    <g>
     <path class="fil0" d="M410 182c-2,0 -4,-1 -5,-2 -3,-3 -3,-7 0,-10l48 -47c3,-3 7,-3 10,0 3,3 3,7 0,10l-48 47c-2,1 -3,2 -5,2z"/>
    </g>
    <g>
     <path class="fil0" d="M419 223c-2,0 -4,-1 -5,-2 -3,-3 -3,-7 0,-10l63 -63c3,-3 7,-3 10,0 3,3 3,7 0,10l-63 63c-1,1 -3,2 -5,2z"/>
    </g>
    <g>
     <g>
      <path class="fil0" d="M407 280c-2,0 -4,-1 -5,-2l-168 -168c-3,-3 -3,-7 0,-10 3,-3 7,-3 10,0l168 168c3,3 3,7 0,10 -1,1 -3,2 -5,2z"/>
     </g>
     <g>
      <path class="fil0" d="M340 347c-2,0 -4,-1 -5,-2l-168 -168c-3,-3 -3,-7 0,-10 3,-3 7,-3 10,0l168 168c3,3 3,7 0,10 -1,1 -3,2 -5,2z"/>
     </g>
    </g>
    <g>
     <path class="fil0" d="M373 314c-2,0 -4,-1 -5,-2l-84 -85c-3,-3 -3,-7 0,-10 3,-3 7,-3 10,0l84 85c3,3 3,7 0,10 -1,1 -3,2 -5,2z"/>
    </g>
    <g>
     <path class="fil0" d="M306 140c-2,0 -4,-1 -5,-2 -3,-3 -3,-7 0,-10l10 -10c3,-3 7,-3 10,0 3,3 3,7 0,10l-10 10c-1,1 -3,2 -5,2z"/>
    </g>
    <g>
     <path class="fil0" d="M379 213c-2,0 -4,-1 -5,-2 -3,-3 -3,-7 0,-10l10 -10c3,-3 7,-3 10,0 3,3 3,7 0,10l-10 10c-1,1 -3,2 -5,2z"/>
    </g>
    <g>
     <path class="fil0" d="M7 512c-2,0 -4,-1 -5,-2 -1,-1 -2,-3 -2,-5 5,-63 12,-104 63,-133 0,0 0,0 0,0 53,-29 82,-61 86,-95 5,-35 -22,-61 -22,-61 -3,-2 -3,-7 0,-10 3,-2 7,-3 10,0 1,1 31,30 26,73 -5,38 -36,73 -94,105 -41,24 -49,55 -54,113 53,-5 90,-12 112,-52 32,-59 67,-91 106,-96 43,-6 72,25 73,26 3,3 3,7 0,10 -3,3 -7,3 -10,0 0,0 -26,-27 -62,-22 -33,4 -65,34 -95,88 -27,49 -71,56 -131,61 -1,0 -1,0 -1,0z"/>
    </g>
    <g>
     <path class="fil0" d="M73 471c-8,0 -17,-3 -23,-9 -13,-13 -13,-33 0,-46 13,-13 33,-13 46,0 13,13 13,33 0,46 -6,6 -15,9 -23,9zm0 -50c-5,0 -9,1 -13,5 -7,7 -7,19 0,26 7,7 19,7 26,0 7,-7 7,-19 0,-26 -4,-4 -8,-5 -13,-5z"/>
    </g>
   </g>
  </g>
 </g>
</svg>
