<svg height="512pt" viewBox="-42 0 511 512" width="512pt" xmlns="http://www.w3.org/2000/svg"><path d="m421.402344 128.226562-110.09375-110.09375c-11.691406-11.691406-27.261719-18.132812-43.835938-18.132812-16.578125 0-32.148437 6.441406-43.839844 18.132812l-27.546874 27.550782c-2.929688 2.925781-2.929688 7.675781 0 10.605468 2.929687 2.925782 7.675781 2.929688 10.605468 0l27.550782-27.550781c18.320312-18.324219 48.136718-18.324219 66.460937 0l110.09375 110.097657c3.289063 3.285156 3.289063 8.636718 0 11.921874-1.59375 1.59375-3.710937 2.472657-5.960937 2.472657-2.253907 0-4.371094-.878907-5.964844-2.472657l-29.085938-29.085937c-.003906-.003906-.011718-.011719-.015625-.019531-.007812-.003906-.015625-.011719-.019531-.015625l-80.972656-80.972657c-5.683594-5.683593-13.25-8.8125-21.304688-8.816406-8.058594 0-15.621094 3.132813-21.308594 8.816406l-166.148437 166.148438c-11.746094 11.75-11.746094 30.863281 0 42.613281l110.097656 110.09375c3.285157 3.289063 3.285157 8.636719 0 11.925781-3.289062 3.289063-8.636719 3.289063-11.925781 0l-110.09375-110.09375c-18.324219-18.324218-18.324219-48.140624 0-66.464843l117.386719-117.386719c2.925781-2.929688 2.925781-7.679688 0-10.605469-2.929688-2.929687-7.679688-2.929687-10.609375 0l-117.386719 117.386719c-11.691406 11.691406-18.132813 27.261719-18.132813 43.835938 0 16.578124 6.441407 32.148437 18.132813 43.839843l75.6875 75.6875-11.382813 11.378907c-2.441406-1.492188-5.257812-2.289063-8.195312-2.289063-4.210938 0-8.175781 1.640625-11.15625 4.621094l-94.636719 94.640625c-4.707031 4.707031-7.300781 10.964844-7.300781 17.621094s2.59375 12.914062 7.300781 17.621093l13.464844 13.464844c4.707031 4.703125 10.960937 7.296875 17.621094 7.296875 6.65625 0 12.914062-2.59375 17.617187-7.300781l59.355469-59.351563c2.929687-2.929687 2.929687-7.679687 0-10.605468-2.929687-2.929688-7.679687-2.929688-10.605469 0l-59.355468 59.351562c-1.875 1.875-4.363282 2.90625-7.011719 2.90625-2.652344 0-5.144531-1.03125-7.015625-2.90625l-13.464844-13.464844c-1.875-1.871094-2.90625-4.363281-2.90625-7.011718 0-2.648438 1.03125-5.140626 2.90625-7.015626l94.640625-94.640624c.304687-.300782.796875-.300782 1.097656 0l26.394531 26.394531c.152344.152343.226563.335937.226563.550781 0 .210938-.074219.398438-.226563.546875l-14.074218 14.078125c-2.929688 2.929688-2.929688 7.675781 0 10.605469 2.929687 2.929687 7.675781 2.929687 10.605468 0l14.074219-14.074219c2.980469-2.980469 4.621094-6.941406 4.621094-11.15625 0-2.9375-.796875-5.753906-2.289063-8.195312l11.378907-11.382813 2.722656 2.722656c4.570313 4.570313 10.570313 6.851563 16.570313 6.851563s12-2.28125 16.570312-6.851563c9.136719-9.136719 9.136719-24 0-33.136719l-2.722656-2.722656 7.71875-7.71875c6.042968-6.046875 6.386718-15.664062 1.035156-22.117187l148.730469-148.730469.269531.269531c2.742188 2.742188 6.390625 4.253907 10.269531 4.253907 3.882813 0 7.527344-1.511719 10.269531-4.253907l9.253907-9.25 2.722656 2.722657c4.425781 4.421874 10.308594 6.863281 16.570313 6.863281 6.257812 0 12.140624-2.441407 16.566406-6.863281 9.136718-9.136719 9.136718-24.003907 0-33.140626zm-278.21875 251.5625-10.472656-10.472656 11.066406-11.066406 10.472656 10.472656zm33.734375-54.679687 7.71875-7.71875c.347656-.347656.746093-.417969 1.015625-.417969.273437 0 .671875.070313 1.023437.421875l4.15625 4.15625c.019531.019531.039063.039063.058594.058594s.039063.039063.054687.054687l4.160157 4.160157c.566406.566406.566406 1.480469 0 2.039062l-7.714844 7.71875zm19.226562-19.359375c-2.945312-2.445312-6.617187-3.777344-10.492187-3.777344-4.390625 0-8.519532 1.707032-11.625 4.8125l-7.71875 7.71875-75.6875-75.6875c-5.898438-5.898437-5.898438-15.5 0-21.398437l166.148437-166.148438c2.851563-2.847656 6.652344-4.417969 10.703125-4.417969 4.046875 0 7.847656 1.570313 10.695313 4.417969l75.6875 75.6875-9.253907 9.253907c-5.660156 5.660156-5.660156 14.875.003907 20.539062l.269531.269531zm169.875-148.796875-5.1875-5.1875c-.015625-.019531-.03125-.035156-.046875-.050781s-.03125-.03125-.046875-.046875l-5.191406-5.1875 8.917969-8.917969 10.472656 10.472656zm0 0"/></svg>