<svg xmlns="http://www.w3.org/2000/svg" viewBox="0 0 64 64"><g id="Layer_22" data-name="Layer 22"><path d="M60.74,32.39,48.22,18.78a1,1,0,0,0-1.73.75L47,27.27l-6,6.52-3-.47a1,1,0,0,0-.31,2l1.71.27L37.13,38l-3-.47a1,1,0,0,0-.31,2l1.67.26-2.27,2.46-2.94-.46a1,1,0,0,0-.31,2l1.63.25L29.34,46.5,26.44,46a1,1,0,0,0-.31,2l1.58.25-2.26,2.46-2.86-.45a1,1,0,0,0-.31,2l1.54.24c-.2.24-.56.52-.61.85l-1.47,6.43A1,1,0,0,0,23,61l5.92-1.6a1,1,0,0,0,.47-.29l4.59-5,3,.47h.15a1,1,0,0,0,.15-2l-1.71-.26,2.27-2.47,3,.47H41a1,1,0,0,0,.15-2l-1.66-.26,2.26-2.46,2.95.46h.15a1,1,0,0,0,.16-2l-1.63-.25,2.27-2.46,2.9.45h.15a1,1,0,0,0,.16-2l-1.59-.25,2.27-2.46,2.86.45h.15a1,1,0,0,0,.16-2l-1.54-.24,1.73-1.88,7,.57A1,1,0,0,0,60.74,32.39ZM28.08,57.5l-4,1.1,1-4.54,1.09-1.19,5.39.84Zm5.13-5.56-5.39-.84,2.27-2.46,5.38.83ZM37.1,47.7l-5.38-.84L34,44.4l5.38.84ZM41,43.47l-5.38-.84,2.27-2.46,5.38.84Zm3.9-4.24-5.38-.83,2.26-2.47,5.38.84ZM43.4,34.16l4.65-5.06,3.08,3.35L48.78,35ZM53,31.48,49,27.21l-.35-5,8.85,9.62Z"/><path d="M30.44,30.22a1,1,0,0,0,.3-2l-5.55-.86L40,11.24a1,1,0,0,0,0-1.35L34,3.32a1,1,0,0,0-1.47,0L26,10.43h0l-4.82,5.25h0l-3.34,3.62L17,13.27a1,1,0,0,0-2,.26l1,7.71-4.58,5h0L6.64,31.47h0l-2.12,2.3c-3.18,3.25-1,9.67,3.76,9.6A5.05,5.05,0,0,0,12,41.69L23.56,29.15ZM18,32.28,16,32a1,1,0,0,0-.31,2l.7.11-3.2,3.48-2-.31a1,1,0,0,0-.31,2l.7.11-1,1C7.09,43.63,3.07,38.28,6,35.13l.72-.79.07.53a1,1,0,0,0,2-.26l-.29-2.19,3.07-3.34.07.53a1,1,0,0,0,2-.26l-.29-2.18,3.08-3.35.07.53a1,1,0,0,0,2-.26l-.29-2.19,3.08-3.34.07.53a1,1,0,0,0,2-.26L23,16.64l3.07-3.34.07.53a1,1,0,0,0,2-.26l-.29-2.18,5.43-5.91,4.68,5.08L32.48,16.5l-2-.32a1,1,0,0,0-.31,2l.69.11-3.2,3.48-2-.31a1,1,0,0,0-.31,2l.7.11L22.81,27l-2-.31a1,1,0,0,0-.31,2l.7.11Z"/></g></svg>