<svg id="Capa_1" enable-background="new 0 0 511 511" height="512" viewBox="0 0 511 511" width="512" xmlns="http://www.w3.org/2000/svg"><g id="Outline_35_"><g><path d="m247.5 251h16c4.142 0 7.5-3.357 7.5-7.5s-3.358-7.5-7.5-7.5h-16c-4.142 0-7.5 3.357-7.5 7.5s3.358 7.5 7.5 7.5z"/><path d="m503.5 148h-48.5v-16.5c0-4.143-3.358-7.5-7.5-7.5h-122.44l3.473-2.005c3.587-2.071 4.816-6.658 2.745-10.245-2.071-3.588-6.659-4.815-10.245-2.745l-7.739 4.468c-4.404-6.04-9.727-11.362-15.766-15.766l4.468-7.739c2.071-3.587.842-8.174-2.745-10.245-3.587-2.07-8.174-.843-10.245 2.745l-4.458 7.722c-6.706-2.995-13.947-4.999-21.546-5.794v-8.896c0-4.143-3.358-7.5-7.5-7.5s-7.5 3.357-7.5 7.5v8.896c-7.599.796-14.84 2.8-21.546 5.794l-4.458-7.722c-2.071-3.588-6.658-4.814-10.245-2.745-3.587 2.071-4.816 6.658-2.745 10.245l4.468 7.739c-6.039 4.404-11.362 9.727-15.766 15.766l-7.739-4.468c-3.588-2.071-8.174-.843-10.245 2.745-2.071 3.587-.842 8.174 2.745 10.245l3.469 2.005h-122.44c-4.142 0-7.5 3.357-7.5 7.5v16.5h-48.5c-4.142 0-7.5 3.357-7.5 7.5v64c0 4.143 3.358 7.5 7.5 7.5h48.5v208.5c0 4.143 3.358 7.5 7.5 7.5h32c4.142 0 7.5-3.357 7.5-7.5v-48.5h305v48.5c0 4.143 3.358 7.5 7.5 7.5h32c4.142 0 7.5-3.357 7.5-7.5v-168.5h24.5c4.142 0 7.5-3.357 7.5-7.5v-32.5h16.5c4.142 0 7.5-3.357 7.5-7.5v-64c0-4.143-3.358-7.5-7.5-7.5zm-63.5 0h-113.395c-.321-3.063-.851-6.063-1.548-9h114.943zm-145.723 0c-3.515-18.205-19.561-32-38.777-32s-35.262 13.795-38.777 32h-17.21c3.682-27.62 27.377-49 55.987-49s52.305 21.38 55.987 49zm-15.456 0h-46.643c3.176-9.852 12.427-17 23.321-17s20.147 7.148 23.322 17zm-190.821 280h-17v-201h17zm53.393-201-38.393 38.393v-38.393zm-38.393 145v-85.393l59.607-59.607h29.393v16.5c0 17.369 14.131 31.5 31.5 31.5h24.5v8.5c0 21.78 17.72 39.5 39.5 39.5h120.5v49zm245.393-145 59.607 59.607v21.393h-120.5c-13.509 0-24.5-10.99-24.5-24.5v-8.5h24.5c17.369 0 31.5-14.131 31.5-31.5v-16.5zm59.607 38.393-38.393-38.393h38.393zm-104-21.893c0 9.098-7.402 16.5-16.5 16.5h-64c-9.098 0-16.5-7.402-16.5-16.5v-16.5h97zm136 184.5h-17v-201h17zm32-176h-17v-25h17zm24-40h-481v-49h80.5c4.142 0 7.5-3.357 7.5-7.5s-3.358-7.5-7.5-7.5h-24.5v-9h114.943c-.697 2.937-1.227 5.937-1.548 9h-60.2c-4.142 0-7.5 3.357-7.5 7.5s3.358 7.5 7.5 7.5h371.805z"/><circle cx="446.5" cy="187" r="7.5"/><circle cx="472" cy="187" r="7.5"/><circle cx="423" cy="187.5" r="7.5"/></g></g></svg>