<svg xmlns="http://www.w3.org/2000/svg" viewBox="0 0 64 64"><g id="Layer_37" data-name="Layer 37"><path d="M58.75,5.25a7.74,7.74,0,0,0-11.34.51L36,19.44a1,1,0,0,0,.06,1.35l.66.65-1.89,1.88c-.61.64-.18,1.33.4,1.81l-5.74,5.73-7.84-.45a1,1,0,0,0-.76.29L3.29,48.28a1,1,0,0,0,0,1.41l11,11a1,1,0,0,0,1.41,0L33.3,43.12a1,1,0,0,0,.29-.76l-.45-7.84,5.73-5.74c.48.58,1.17,1,1.81.4l1.88-1.89c.54.56,1.19,1.36,2,.72L58.24,16.59A7.74,7.74,0,0,0,58.75,5.25ZM31.4,33.43a1.23,1.23,0,0,0-.29.76L31.57,42,17.38,56.21l-8.4-7,7,8.41-1,1L5.41,49,22,32.43l7.84.46h0a1.07,1.07,0,0,0,.73-.28l6.06-6.06.83.83ZM40,27.06l-3-3,1.18-1.18,3,3Zm17-12L44,25.89,38.11,20,49,7a5.61,5.61,0,0,1,4.11-2C58.41,4.68,61.13,11.68,57,15.05Z"/></g></svg>