<svg id="Capa_1" enable-background="new 0 0 512.023 512.023" height="512" viewBox="0 0 512.023 512.023" width="512" xmlns="http://www.w3.org/2000/svg"><g><path d="m397.286 1.563c-34.581 5.311-69.075 23.685-97.126 51.737-30.146 30.146-49.369 68.539-52.739 105.335-2.949 32.193-16.938 61.855-39.392 83.523-71.687 69.178-121.385 117.138-193.205 186.447-9.441 9.111-14.705 21.354-14.822 34.474s4.928 25.454 14.206 34.732c9.487 9.487 21.942 14.332 34.732 14.206 13.12-.117 25.363-5.381 34.474-14.822l21.44-22.217c2.876-2.98 2.792-7.729-.189-10.605s-7.729-2.792-10.605.189l-21.44 22.217c-6.293 6.521-14.75 10.158-23.813 10.238-9.102.086-17.584-3.404-23.992-9.812-6.408-6.409-9.893-14.929-9.812-23.992.081-9.062 3.717-17.52 10.238-23.813l33.971-32.783c12.748 7.365 27.628 11.122 43.616 11.122 15.47 0 30.857-3.498 45.443-9.354l-29.442 30.51c-2.876 2.98-2.792 7.729.189 10.605 2.98 2.875 7.729 2.791 10.605-.189l140.237-145.323c21.667-22.453 51.33-36.442 83.523-39.392 20.443-1.872 41.379-8.638 61.12-19.451.534-.22 1.033-.498 1.49-.825 48.069-26.91 86.326-76.613 94.462-129.588 5.443-35.437-3.396-66.79-24.888-88.282-23.071-23.072-55.539-29.916-88.281-24.887zm-5.955 42.111c-16.75 4.925-34.124 14.03-48.941 25.411 1.511-5.978 3.106-11.924 4.778-17.804l5.305-18.661c13.758-7.435 27.892-12.581 41.703-15.321-1.127 8.787-2.074 17.61-2.83 26.372-.004 0-.01.001-.015.003zm-264.772 356.038c-20.689 5.141-40.212 3.676-56.005-4.043l19.402-18.724c27.896 7.797 60.957-8.691 83.17-28.189 3.113-2.732 3.422-7.471.689-10.584-2.732-3.114-7.471-3.422-10.584-.689-19.659 17.255-42.055 26.875-59.737 26.398l98.66-95.209c-.684 13.19-6.453 28.778-16.452 43.496-2.328 3.426-1.438 8.091 1.989 10.418 3.419 2.323 8.086 1.444 10.418-1.989 15.258-22.458 21.826-46.519 18.081-65.471l2.254-2.176c8.799-8.492 16.432-18.075 22.774-28.488-.828 23.623-.017 39.148-.128 42.644-.207 6.849-1.208 13.93-2.977 21.048-12.504 50.334-61.158 99.037-111.554 111.558zm132.507-106.14-10.071 10.436c4.091-11.616 6.653-23.703 7.076-36.009.371-4.583-2.116-38.865 3.612-90.255 1.229-5.817 2.126-11.74 2.676-17.741 3.056-33.363 20.7-68.389 48.408-96.097 7.228-7.228 14.851-13.69 22.723-19.364l-.749 2.636c-3.748 13.182-7.119 26.681-10.029 40.156-30.097 33.928-52.75 91.788-21.283 123.256 2.083 2.083 4.325 3.951 6.714 5.605-.18 14.529.138 29.221.95 43.803-18.876 7.609-35.952 18.989-50.027 33.574zm92.949-43.913c-9.629.882-19.058 2.657-28.168 5.268-.516-10.56-.768-21.163-.753-31.703 14.364 4.146 30.099 2.482 44.453-1.74 10.199-2.999 20.63-7.548 30.574-13.217 1.481 8.687 3.144 17.373 4.973 25.97-16.667 8.526-34.088 13.866-51.079 15.422zm143.614-137.204c-7.051 45.903-39.172 88.784-78.846 113.953-1.829-8.929-3.471-17.937-4.909-26.922 6.771-4.82 13.106-10.124 18.728-15.746 12.869-12.869 24.162-29.477 31.8-46.765 1.674-3.789-.041-8.217-3.83-9.891-3.787-1.674-8.217.04-9.891 3.83-6.807 15.408-17.263 30.797-28.686 42.22-28.146 28.146-82.833 51.976-107.959 26.849-14.137-14.137-11.737-35.562-7.234-51.046 5.865-20.171 18.613-41.442 34.083-56.913 28.146-28.146 82.833-51.976 107.96-26.85 8.073 8.073 11.604 19.45 10.496 33.814-.319 4.13 2.771 7.736 6.9 8.055 4.125.321 7.736-2.771 8.055-6.9 1.44-18.664-3.692-34.423-14.844-45.575-12.215-12.215-29.889-17.086-50.742-14.238.784-8.354 1.744-16.749 2.869-25.098 25.469-1.734 48.842 5.283 65.384 21.825 18.025 18.027 25.365 44.804 20.666 75.398z"/><path d="m59.223 442.189-16.143 16.142c-2.929 2.929-2.929 7.678 0 10.606 2.929 2.929 7.678 2.929 10.606 0l16.143-16.143c2.929-2.929 2.929-7.678 0-10.606s-7.678-2.928-10.606.001z"/></g></svg>