<?xml version="1.0" encoding="UTF-8" standalone="no"?> <svg xmlns="http://www.w3.org/2000/svg" viewBox="0 0 48 48"><g id="Thermos"><path d="M41,14H39a3,3,0,0,0-2-2.816V6a5.006,5.006,0,0,0-5-5H27a5.006,5.006,0,0,0-5,5v5.184A3,3,0,0,0,20,14V42a5.006,5.006,0,0,0,5,5h9a5.006,5.006,0,0,0,5-5V32a5.006,5.006,0,0,0,5-5V17A3,3,0,0,0,41,14ZM24,9H35v2H24Zm0-3a3,3,0,0,1,3-3h5a3,3,0,0,1,3,3V7H24ZM37,42a3,3,0,0,1-3,3H25a3,3,0,0,1-3-3V14a1,1,0,0,1,1-1H36a1,1,0,0,1,1,1Zm5-15a3,3,0,0,1-3,3V16h2a1,1,0,0,1,1,1Z"/><path d="M16,32H6a2,2,0,0,0-2,2v8a5.006,5.006,0,0,0,5,5h4a5.006,5.006,0,0,0,5-5V34A2,2,0,0,0,16,32Zm0,10a3,3,0,0,1-3,3H9a3,3,0,0,1-3-3V34H16Z"/><path d="M12.644,29.484a1,1,0,1,0,1.712,1.032,3.136,3.136,0,0,0,0-3.032,1.16,1.16,0,0,1,0-.968,1,1,0,0,0-1.712-1.032,3.136,3.136,0,0,0,0,3.032A1.16,1.16,0,0,1,12.644,29.484Z"/><path d="M7.644,29.484a1,1,0,1,0,1.712,1.032,3.136,3.136,0,0,0,0-3.032,1.16,1.16,0,0,1,0-.968,1,1,0,1,0-1.712-1.032,3.136,3.136,0,0,0,0,3.032A1.16,1.16,0,0,1,7.644,29.484Z"/></g></svg>