<?xml version="1.0" encoding="UTF-8" standalone="no"?> <svg xmlns="http://www.w3.org/2000/svg" viewBox="0 0 64 64"><g id="Layer_41" data-name="Layer 41"><path d="M61,13.24a1,1,0,0,0-.29-.71L51.47,3.28a1,1,0,0,0-1.41,0L44.68,8.66c-1.2-1.42-3.36-1.82-4.51-.62l-6.79,6.78a3,3,0,0,0,.36,4.25l1.43,1.42-4.76,4.75a2.74,2.74,0,0,0,0,3.86l4.49,4.49a2.76,2.76,0,0,0,3.86,0l4.75-4.76,1.42,1.43a3.05,3.05,0,0,0,4.25.35L56,23.83c1.2-1.15.81-3.31-.62-4.51l5.38-5.38A1,1,0,0,0,61,13.24ZM39.59,24.92l-2.92,2.92-.51-.51,2.92-2.92Zm-2.25,7.25a.72.72,0,0,1-1,0l-4.49-4.48a.72.72,0,0,1,0-1l4.75-4.76L37.67,23,34,26.63A1,1,0,0,0,34,28L36,30a1,1,0,0,0,1.41,0L41,26.33l1.09,1.09ZM54.19,21c.51.51.61,1.17.36,1.42L47.77,29.2c-.49.33-1,0-1.42-.36L35.16,17.65c-.51-.51-.61-1.17-.36-1.42l6.78-6.78c.36-.36,1.25.06,1.69.62l-3.55,3.55a1,1,0,0,0,0,1.42L49,24.28a1,1,0,0,0,1.42,0l3.55-3.55Zm-4.52,1.16-7.83-7.83L50.76,5.4l7.84,7.84Z"/><path d="M24,28.31a2.9,2.9,0,0,0-4.1,0l-9.17,9.17a3,3,0,0,0,.52,4.61l-8,8a1,1,0,0,0,0,1.41l9.25,9.25a1,1,0,0,0,1.41,0l8-8a3,3,0,0,0,4.61.52l9.17-9.17a2.88,2.88,0,0,0,.85-2.05,2.85,2.85,0,0,0-.85-2ZM13.24,58.6,5.4,50.76l7.26-7.25,7.83,7.83Zm21-15.92h0l-9.17,9.17a.93.93,0,0,1-1.28,0l-1.22-1.22L18,46l-5.84-5.84a.91.91,0,0,1,0-1.28l9.17-9.17a.9.9,0,0,1,1.27,0L34.28,41.41A.9.9,0,0,1,34.28,42.68Z"/><path d="M24.55,33.94a2.92,2.92,0,0,0-4.11,0L16.37,38a2.9,2.9,0,0,0,0,4.1l5.51,5.51a2.9,2.9,0,0,0,4.1,0l4.08-4.07a2.92,2.92,0,0,0,0-4.11Zm4.09,8.2-4.07,4.08a.91.91,0,0,1-1.28,0l-5.51-5.51a.91.91,0,0,1,0-1.28l4.08-4.07a.9.9,0,0,1,1.27,0l5.51,5.51A.9.9,0,0,1,28.64,42.14Z"/></g></svg>