<?xml version="1.0" encoding="UTF-8"?>
<!DOCTYPE svg PUBLIC "-//W3C//DTD SVG 1.1//EN" "http://www.w3.org/Graphics/SVG/1.1/DTD/svg11.dtd">
<!-- Creator: CorelDRAW -->
<svg xmlns="http://www.w3.org/2000/svg" xml:space="preserve" width="1.70666in" height="1.70666in" version="1.1" style="shape-rendering:geometricPrecision; text-rendering:geometricPrecision; image-rendering:optimizeQuality; fill-rule:evenodd; clip-rule:evenodd"
viewBox="0 0 1707 1707"
 xmlns:xlink="http://www.w3.org/1999/xlink">
 <defs>
  <style type="text/css">
   <![CDATA[
    .fil0 {fill:black}
   ]]>
  </style>
 </defs>
 <g id="Layer_x0020_1">
  <metadata id="CorelCorpID_0Corel-Layer"/>
  <path class="fil0" d="M1130 342c-12,0 -23,-9 -26,-20 -4,-15 -13,-27 -28,-35 -78,-45 -274,-3 -342,17 -11,3 -22,-1 -29,-10 -7,-9 -7,-21 -1,-30 86,-132 326,-161 336,-162 1,0 2,0 3,0l110 -1 0 -53c0,-14 12,-26 27,-26l150 0c14,0 26,11 27,25l2 52 50 -1c0,0 0,0 1,0 13,0 25,11 26,24 2,12 14,19 17,20 1,1 1,1 2,1 14,1 64,1 77,0 0,0 1,-1 1,-1 12,-3 14,-8 18,-16 4,-8 12,-24 32,-25l96 -3c7,0 14,2 19,7 6,5 8,12 8,20l0 186c0,15 -12,27 -26,27l-84 0c-10,0 -19,-6 -24,-15 -6,-12 -20,-25 -29,-31 -14,-3 -67,-4 -80,-2 -8,3 -27,22 -39,37 -5,7 -12,11 -21,11l-40 1 4 656 99 0 214 0c15,0 27,12 27,27l0 636c0,15 -12,27 -27,27l-1653 0c-15,0 -27,-12 -27,-27l0 -636c0,-15 12,-27 27,-27l213 0 170 0 0 -613c0,-15 12,-27 27,-27l190 0c14,0 26,12 26,27l0 613 150 0 0 -243c-49,-36 -76,-92 -76,-154 0,-72 42,-139 108,-170 9,-4 18,-4 26,1 8,5 12,14 12,23l0 120 77 0 0 -120c0,-9 5,-18 12,-23 8,-5 18,-5 26,-1 68,32 112,99 112,170 0,58 -27,113 -73,150l0 247 133 0 -3 -654 -27 1c0,0 0,0 0,0zm336 1024l-269 0c-15,0 -27,-12 -27,-27l0 -291 -170 0 -170 0 -203 0 -91 0 0 291c0,15 -12,27 -27,27l-269 0c-15,0 -27,-12 -27,-27l0 -291 -160 0 0 584 1600 0 0 -584 -161 0 0 291c0,15 -12,27 -26,27zm-243 -53l216 0 0 -265 -216 0 0 265zm-956 0l215 0 0 -265 -215 0 0 265zm590 -318l116 0 0 -260c0,-9 5,-17 12,-22 38,-27 62,-70 62,-115 0,-36 -17,-71 -44,-96l0 80c0,24 -18,43 -43,43l-93 0c-26,0 -47,-19 -47,-43l0 -79c-25,25 -40,59 -40,95 0,49 23,92 64,118 8,5 13,13 13,22l0 257zm-394 0l46 0 91 0 0 -587 -137 0 0 587zm-209 -973l303 0c54,0 96,41 96,93l0 87c0,14 -12,26 -26,26l-347 0 0 277c27,4 47,26 47,53l0 77c0,27 -24,51 -50,53l0 154c0,63 -50,113 -114,113 -63,0 -113,-50 -113,-113l0 -154c-27,-2 -50,-26 -50,-53l0 -77c0,-27 20,-49 47,-53l0 -270 0 -117c0,-53 43,-96 96,-96l110 0 1 0zm0 153l346 0 0 -60c0,-23 -19,-40 -43,-40l-414 0c-21,0 -43,17 -43,43l0 117 0 270 127 0 0 -303 0 0 0 -1 0 0 0 -1 0 0 0 0 0 0 0 -1 0 0 0 -1 0 0 0 0 0 0 0 -1 0 0 0 -1 0 0 0 0 0 0 1 -1 0 0 0 -1 0 0 0 0 0 0 0 -1 0 0 0 0 0 0 1 -1 0 0 0 -1 0 0 0 0 0 0 0 -1 0 0 1 0 0 0 0 -1 0 0 0 -1 0 0 1 0 0 0 0 -1 0 0 0 0 0 0 1 -1 0 0 0 0 0 0 0 -1 0 0 1 0 0 0 0 -1 0 0 1 0 0 0 0 -1 0 0 1 0 0 0 0 -1 0 0 0 0 0 0 1 0 0 0 0 -1 0 0 1 0 0 0 0 -1 0 0 1 0 0 0 0 0 0 0 1 -1 0 0 1 0 0 0 0 0 0 0 1 -1 0 0 0 0 0 0 1 0 0 0 0 -1 0 0 1 0 0 0 1 0 0 0 0 0 0 0 1 -1 0 0 0 0 0 0 1 0 0 0 1 0 0 0 0 0 0 0 1 0 0 0 1 -1 0 0 0 0 0 0 1 0 0 0 1 0 0 0 0 0 0 0 1 0 0 0 1 0 0 0 0 0 0 0 1 0zm-151 513l0 154c0,33 27,60 60,60 34,0 60,-27 60,-60l0 -154 -120 0zm-49 -53l23 0 173 0 22 0c0,0 1,-1 1,-1l0 -76 -20 0 -180 0 -20 0 0 76c1,0 1,1 1,1zm1153 -537l98 0 -1 -23 -97 0 0 23zm3 244l3 652 100 -2 -3 -650 -100 0zm255 -52c0,0 -1,1 -1,1 0,0 1,-1 1,-1zm-494 -77c56,0 100,9 131,27 22,12 37,28 47,48l242 -3c13,-16 36,-40 59,-46l0 0c12,-3 42,-3 59,-3 45,1 57,5 65,11 6,5 24,18 38,38l41 0 0 -133 -56 2c-6,12 -18,30 -45,39 -8,3 -21,4 -57,4 -48,0 -54,-2 -58,-4 0,0 -1,0 -1,0 -15,-5 -35,-19 -45,-41l-346 3c-14,2 -140,19 -229,75 15,-3 32,-5 49,-8 39,-6 74,-9 106,-9zm567 74c0,0 0,0 0,0 0,0 0,0 0,0zm0 0c0,0 0,0 0,0 0,0 0,0 0,0zm-69 -134c3,4 4,10 4,15 0,-6 -2,-11 -4,-15zm52 -4c0,0 0,0 0,0 0,0 0,0 0,0zm0 0c0,0 0,0 0,0 0,0 0,0 0,0zm0 0c0,0 0,0 0,0 0,0 0,0 0,0zm-74 -7c0,0 0,0 0,0 0,0 0,0 0,0zm0 0c0,0 0,0 0,0 0,0 0,0 0,0z"/>
 </g>
</svg>
