<?xml version="1.0" encoding="UTF-8"?>
<svg id="Lag_1" data-name="Lag 1" xmlns="http://www.w3.org/2000/svg" viewBox="0 0 384 323.73">
  <defs>
    <style>
      .cls-1 {
        stroke-width: 0px;
      }
    </style>
  </defs>
  <path class="cls-1" d="M128.84,240.4c0-5.99-.04-11.98.01-17.97.03-4.21,2.03-6.61,5.4-6.7,3.51-.09,5.85,2.43,5.8,6.76-.11,12.1-.31,24.19-.61,36.29-.11,4.33-2.53,6.7-6.09,6.47-3.37-.22-5.26-2.69-5.11-6.9.21-5.98.52-11.96.78-17.94-.06,0-.13,0-.19,0Z"/>
  <path class="cls-1" d="M208.36,237.08c0,4.86.06,9.73-.02,14.59-.07,4.22-2.45,6.86-5.88,6.72-3.29-.14-5.31-2.64-5.33-6.79-.04-9.72-.04-19.45,0-29.18.02-4.19,2.04-6.6,5.4-6.69,3.51-.09,5.75,2.43,5.81,6.76.07,4.86.02,9.72.02,14.59Z"/>
  <path class="cls-1" d="M173.32,272.28c-1.58,9.07-3.05,18.16-4.78,27.2-.69,3.63-3.68,5.42-6.88,4.68-2.99-.69-4.66-3.4-4.1-6.95,1.38-8.73,2.79-17.45,4.27-26.16.62-3.64,2.87-5.45,6.12-5.14,3.14.3,5.15,2.84,5.38,6.36Z"/>
  <g>
    <path class="cls-1" d="M0,28.21c1.68-5.71,3.42-11.4,5.02-17.13C7.72,1.41,13.9-1.88,23.41,1.01c48.57,14.76,97.17,29.43,145.76,44.13,2.27.69,4.17.95,6.59-.55,1.78-1.11,4.86-.94,7.11-.35,21.73,5.68,43.4,11.56,65.08,17.39,3.37.91,6.75,1.81,10.13,2.67,3.04.77,5.5,2.11,6.8,5.27.37.91,1.75,1.63,2.82,1.97,2.84.93,5.8,1.49,8.65,2.4,4.98,1.59,7.37,5.75,6.14,10.83-1.32,5.45-2.77,10.88-4.35,16.27-1.57,5.34-5.88,7.67-11.38,6.33-2.79-.68-5.59-1.34-8.31-2.24-2.28-.76-3.62-.08-4.31,2.11-6.85,21.61-10.56,43.42-4.66,65.95.66,2.54,1.53,3.74,4.2,3.37.97-.14,2-.04,2.99.09,3.06.41,4.72,2.39,4.85,5.3.12,2.77-1.38,4.81-4.16,5.48-1.43.35-2.97.33-4.46.33-45.49.02-90.98.01-136.47.01q-7.82,0-7.01,8.32h186.37c.15-.29.34-.5.35-.72q.37-7.6-7.21-7.6c-2.25,0-4.51.12-6.75-.06-3.53-.28-5.63-2.63-5.5-5.86.13-3.07,2.21-5.15,5.66-5.26,4.12-.13,8.25-.16,12.37.02,7.27.3,12.49,5.74,12.75,13.1.14,3.9-.61,7.86,2.45,11.29.95,1.06.7,3.33.72,5.05.22,16.24.39,32.48.57,48.72,0,.37.04.75.06,1.12.26,6.42,1.89,11.02,9.18,13.6,6.36,2.25,11.64,7.48,17.46,11.32,2.56,1.69,5.09,3.66,7.92,4.69,12.51,4.54,23.8,10.97,33.16,20.51,1.89,1.93,3.35,4.28,5.01,6.44v4.5c-2.27,5.08-6.22,6.77-11.7,6.76-111.73-.09-223.47-.07-335.2-.07-1.25,0-2.51.07-3.74-.1-5.39-.75-8.62-5.67-7.27-10.96,3.47-13.61,16.42-23.27,31.07-22.67,4.19.17,6.61-1.17,8.91-4.56,5.58-8.27,13.51-13.47,23-16.48,1.31-.41,2.95-2.02,3.16-3.28,1.02-6.39,1.63-12.85,2.34-19.29.14-1.24-.05-2.51.07-3.75.34-3.41,2.82-5.68,5.92-5.5,3.03.17,5.33,2.36,5.2,5.72-.3,8.09-.9,16.17-1.4,24.48,1.94.39,4.52.78,7.03,1.44,17.64,4.61,29.33,18.56,31.6,37.63.64,5.41,1.36,6.06,6.81,6.06,28.75,0,57.49,0,86.24,0h3.87c-.75-3.09-1.48-5.9-2.11-8.74-.97-4.34.46-7.16,3.96-7.96,3.29-.75,5.79,1.09,6.95,5.14.03.12.08.24.11.36.98,3.6.88,8.66,3.23,10.39,2.56,1.88,7.39.78,11.24.79,20.24.04,40.49.02,61.51.02-1.48-2.08-2.57-3.77-3.82-5.35-11.11-14.01-18.32-29.78-20.47-47.55-.99-8.15-.92-16.45-1.07-24.69-.17-8.86-.04-17.72-.04-26.88h-22.57c-.06,1.28-.19,2.59-.19,3.91.04,14.25.09,28.5.16,42.74.02,4.22-1.82,6.69-5.19,6.88-3.54.2-5.98-2.23-6.02-6.56-.15-14.12-.15-28.24-.21-42.37,0-1.47,0-2.94,0-4.65h-91.29c0,7.79,0,15.38,0,22.97,0,1.5.04,3-.02,4.5-.15,3.69-2.13,5.86-5.36,5.95-3.37.1-5.7-2.13-5.83-5.93-.14-4.37-.04-8.75-.05-13.12,0-4.72,0-9.44,0-14.39h-57.02c0,2.5.03,4.94,0,7.38-.07,4.27-1.97,6.56-5.45,6.63-3.59.07-5.71-2.36-5.78-6.76-.05-3.5-.11-7,.04-10.5.06-1.45.15-3.37,1.04-4.24,2.74-2.67,2.21-5.89,2.25-9.07.12-9.68,5.15-14.76,14.86-14.79,14.35-.05,28.7-.01,44.21-.01-1.7-1.17-2.54-1.72-3.35-2.3-7.23-5.11-14.59-10.05-21.65-15.38-4.82-3.64-5.01-7.63-.65-11.62,18.78-17.22,28.08-39.34,33.38-63.61.6-2.75-.6-3.81-3.09-4.43-8.59-2.15-17.15-4.43-25.73-6.66-.24-.06-.49-.08-.74-.14-4.73-1.21-6.94-3.98-5.96-7.44.98-3.45,3.98-4.72,8.58-3.55,7.01,1.8,14,3.66,21,5.49,2.51.65,5.03,1.26,7.87,1.97,1.07-3.95,2.07-7.64,3.19-11.79-3.15-.9-6.1-1.7-9.02-2.59C114.28,40.37,67.72,26.25,21.18,12.12c-4.4-1.34-4.39-1.4-5.64,3.21-1.21,4.46-2.16,9-3.68,13.34-1.15,3.3.21,4.13,3.03,4.7,11.98,2.45,23.96,4.9,35.9,7.56,18.88,4.21,37.72,8.59,56.57,12.9.97.22,1.96.44,2.9.75,3.32,1.11,4.98,3.95,4.1,6.94-.91,3.08-3.65,4.71-7.06,3.92-8.03-1.84-16-3.91-24.04-5.69-23.39-5.16-46.78-10.36-70.24-15.24C6.7,43.2,2.22,40.33,0,34.21,0,32.21,0,30.21,0,28.21ZM175.21,87.47c-3.91,16.22-8.39,31.76-17.73,45.72,23.23,17.85,48.97,24.69,78.04,20.86-1.29-16.87,2.79-32.55,7.38-48.42-22.62-6.07-44.86-12.03-67.69-18.16ZM132.14,312.23c-.13-1.94-.16-3.44-.34-4.92-1.69-13.54-8.64-23.14-21.8-27.21-12.61-3.9-24.47-1.14-32.47,9.27-6.42,8.36-13.11,12.78-23.84,12.01-6.71-.48-13.54,5.48-14.84,10.85h93.3ZM176.4,76.16c23.9,6.39,47.44,12.69,71.18,19.04,1.88-7.06,3.63-13.64,5.48-20.56-23.91-6.4-47.42-12.69-71.14-19.04-1.89,7.06-3.63,13.54-5.52,20.56ZM141.99,152.57c10.92,9.03,22.71,15.61,35.54,20.44,6.73,2.54,13.54,3.82,20.82,3.61,11.98-.34,23.98-.09,35.97-.09h4.3c-.83-4.03-1.54-7.5-2.3-11.17-31.66,3.92-59.97-3.63-85.25-22.84-3.01,3.33-5.92,6.56-9.08,10.05ZM319.24,280.73c-.23.28-.46.56-.69.84.28.67.45,1.42.85,2.01,6.3,9.24,12.62,18.48,18.98,27.67.37.53,1.18,1.08,1.79,1.08,9.4.07,18.8.05,29.29.05-1.83-1.61-2.7-2.68-3.83-3.31-7.45-4.2-14.76-8.69-22.5-12.28-4.9-2.27-9.59-4.47-13.6-8.22-3.13-2.93-6.85-5.24-10.3-7.83ZM259.62,93.79c2.9.75,5.47,1.41,8.24,2.12,1.09-4.12,2.06-7.81,3.12-11.79-2.87-.77-5.43-1.45-8.16-2.18-1.1,4.08-2.07,7.66-3.2,11.85Z"/>
    <path class="cls-1" d="M241.87,244.25c.82,10.94,1.61,21.89,2.5,32.83.26,3.15.21,6.07-3.14,7.66-3.71,1.76-7.57-.56-7.93-5.08-.85-10.82-1.66-21.64-2.11-32.48-.33-8.1-.1-16.23-.06-24.34.02-4.6,2.25-7.22,5.87-7.09,3.47.12,5.34,2.57,5.36,7.13.03,7.12,0,14.23,0,21.35-.17.01-.34.02-.5.04Z"/>
    <path class="cls-1" d="M288.4,299.45c-1.56,1.54-2.92,4-4.73,4.38-1.84.39-5.42-.71-5.98-2.09-3.29-8.04-6.12-16.29-8.66-24.61-.79-2.6,1.11-4.83,3.81-5.67,2.71-.84,5.36-.03,6.34,2.56,3.02,7.9,5.64,15.96,8.41,23.95.08.23.07.49.1.74.24.24.47.48.71.72Z"/>
  </g>
  <path class="cls-1" d="M208.34,289.38c0,3,.12,6-.03,8.99-.19,3.8-2.52,6.03-5.87,5.9-3.2-.12-5.25-2.32-5.3-6-.09-6.12-.08-12.24,0-18.36.05-3.79,2.34-6.2,5.58-6.17,3.05.03,5.42,2.39,5.59,5.89.16,3.24.03,6.49.03,9.74Z"/>
</svg>